<svg width="32" height="32" viewBox="0 0 32 32" fill="none" xmlns="http://www.w3.org/2000/svg">
<g clip-path="url(#clip0_97_160)">
<path d="M29.5 4H27.5V2.5C27.5 1.1215 26.3785 0 25 0C23.6215 0 22.5 1.1215 22.5 2.5V4H9.5V2.5C9.5 1.1215 8.3785 0 7 0C5.6215 0 4.5 1.1215 4.5 2.5V4H2.5C1.1215 4 0 5.1215 0 6.5V29.5C0 30.8785 1.1215 32 2.5 32H29.5C30.8785 32 32 30.8785 32 29.5V6.5C32 5.1215 30.8785 4 29.5 4ZM23.5 2.5C23.5 1.673 24.173 1 25 1C25.827 1 26.5 1.673 26.5 2.5V7H23.5V2.5ZM5.5 2.5C5.5 1.673 6.173 1 7 1C7.827 1 8.5 1.673 8.5 2.5V7H5.5V2.5ZM2.5 5H4.5V7.5C4.5 7.7765 4.7235 8 5 8H9C9.2765 8 9.5 7.7765 9.5 7.5V5H22.5V7.5C22.5 7.7765 22.7235 8 23 8H27C27.2765 8 27.5 7.7765 27.5 7.5V5H29.5C30.327 5 31 5.673 31 6.5V11H1V6.5C1 5.673 1.673 5 2.5 5ZM29.5 31H2.5C1.673 31 1 30.327 1 29.5V12H31V29.5C31 30.327 30.327 31 29.5 31Z" fill="#C01B58" stroke="#C01B58" stroke-width="1.5"/>
<path d="M25 15H7C5.6215 15 4.5 16.1215 4.5 17.5V24.5C4.5 25.8785 5.6215 27 7 27H25C26.3785 27 27.5 25.8785 27.5 24.5V17.5C27.5 16.1215 26.3785 15 25 15ZM26.5 24.5C26.5 25.327 25.827 26 25 26H7C6.173 26 5.5 25.327 5.5 24.5V17.5C5.5 16.673 6.173 16 7 16H25C25.827 16 26.5 16.673 26.5 17.5V24.5Z" fill="#C01B58" stroke="#C01B58" stroke-width="0.5"/>
<path d="M10 17.5C8.6215 17.5 7.5 18.6215 7.5 20V24C7.5 24.2765 7.7235 24.5 8 24.5C8.2765 24.5 8.5 24.2765 8.5 24V21.5H11.5V24C11.5 24.2765 11.7235 24.5 12 24.5C12.2765 24.5 12.5 24.2765 12.5 24V20C12.5 18.6215 11.3785 17.5 10 17.5ZM8.5 20.5V20C8.5 19.173 9.173 18.5 10 18.5C10.827 18.5 11.5 19.173 11.5 20V20.5H8.5Z" fill="#C01B58"/>
<path d="M15 18.5H17C17.276 18.5 17.5 18.724 17.5 19C17.5 19.2765 17.7235 19.5 18 19.5C18.2765 19.5 18.5 19.2765 18.5 19C18.5 18.173 17.827 17.5 17 17.5H15C14.173 17.5 13.5 18.173 13.5 19V23C13.5 23.827 14.173 24.5 15 24.5H17C17.827 24.5 18.5 23.827 18.5 23V21C18.5 20.7235 18.2765 20.5 18 20.5H16C15.7235 20.5 15.5 20.7235 15.5 21C15.5 21.2765 15.7235 21.5 16 21.5H17.5V23C17.5 23.276 17.276 23.5 17 23.5H15C14.724 23.5 14.5 23.276 14.5 23V19C14.5 18.724 14.724 18.5 15 18.5Z" fill="#C01B58"/>
<path d="M21 18.5H24C24.2765 18.5 24.5 18.2765 24.5 18C24.5 17.7235 24.2765 17.5 24 17.5H21C20.173 17.5 19.5 18.173 19.5 19V23C19.5 23.827 20.173 24.5 21 24.5H24C24.2765 24.5 24.5 24.2765 24.5 24C24.5 23.7235 24.2765 23.5 24 23.5H21C20.724 23.5 20.5 23.276 20.5 23V21.5H24C24.2765 21.5 24.5 21.2765 24.5 21C24.5 20.7235 24.2765 20.5 24 20.5H20.5V19C20.5 18.724 20.724 18.5 21 18.5Z" fill="#C01B58"/>
</g>
<defs>
<clipPath id="clip0_97_160">
<rect width="32" height="32" fill="white"/>
</clipPath>
</defs>
</svg>
