<svg width="45" height="45" viewBox="0 0 45 45" fill="none" xmlns="http://www.w3.org/2000/svg">
<g clip-path="url(#clip0_2159_176)">
<path d="M13.4255 20.5725C15.1636 18.5217 17.4896 17.0541 20.0889 16.3682C22.6882 15.6822 25.4355 15.811 27.9592 16.737C30.483 17.6631 32.6615 19.3418 34.2003 21.5462C35.739 23.7505 36.5637 26.3742 36.5629 29.0625C36.5629 29.8084 36.8593 30.5238 37.3867 31.0512C37.9142 31.5787 38.6295 31.875 39.3754 31.875C40.1214 31.875 40.8367 31.5787 41.3642 31.0512C41.8916 30.5238 42.1879 29.8084 42.1879 29.0625C42.1879 18.7069 33.7936 10.3125 23.438 10.3125C20.816 10.3093 18.2226 10.8577 15.8264 11.9221C13.4302 12.9865 11.2846 14.543 9.5292 16.4906L8.87858 12.8063C8.821 12.4367 8.69029 12.0824 8.49411 11.764C8.29793 11.4455 8.04021 11.1695 7.73603 10.9518C7.43186 10.7342 7.08734 10.5795 6.72263 10.4966C6.35792 10.4138 5.98035 10.4045 5.61201 10.4694C5.24368 10.5342 4.89197 10.6718 4.57748 10.8743C4.26299 11.0767 3.99202 11.3398 3.78044 11.6482C3.56886 11.9566 3.42091 12.3041 3.34526 12.6703C3.2696 13.0366 3.26775 13.4143 3.33983 13.7813L5.29358 24.8625C5.42295 25.5956 5.83733 26.25 6.45045 26.6775C7.20608 27.2063 8.2017 27.3244 9.04733 27.0563L19.6298 25.1888C19.9994 25.1312 20.3537 25.0005 20.6721 24.8043C20.9905 24.6081 21.2666 24.3504 21.4842 24.0462C21.7018 23.742 21.8566 23.3975 21.9395 23.0328C22.0223 22.6681 22.0316 22.2905 21.9667 21.9222C21.9019 21.5539 21.7642 21.2022 21.5618 20.8877C21.3594 20.5732 21.0963 20.3022 20.7879 20.0906C20.4795 19.879 20.132 19.7311 19.7658 19.6554C19.3995 19.5798 19.0218 19.5779 18.6548 19.65L13.4273 20.5706L13.4255 20.5725Z" fill="white"/>
</g>
<defs>
<clipPath id="clip0_2159_176">
<rect width="45" height="45" fill="white"/>
</clipPath>
</defs>
</svg>
