<svg width="24" height="24" viewBox="0 0 24 24" fill="none" xmlns="http://www.w3.org/2000/svg">
<g clip-path="url(#clip0_124_113)">
<path d="M23.28 5.355C22.9148 5.08073 22.4559 4.96202 22.0035 5.02478C21.551 5.08754 21.1418 5.32667 20.865 5.69L17 11V1.5C17 1.10218 16.842 0.720644 16.5607 0.43934C16.2794 0.158035 15.8978 0 15.5 0L1.5 0C1.10218 0 0.720644 0.158035 0.43934 0.43934C0.158035 0.720644 0 1.10218 0 1.5L0 22.5C0 22.8978 0.158035 23.2794 0.43934 23.5607C0.720644 23.842 1.10218 24 1.5 24H15.5C15.8978 24 16.2794 23.842 16.5607 23.5607C16.842 23.2794 17 22.8978 17 22.5V17C17.0022 16.9868 17.0022 16.9732 17 16.96L23.7 7.76C23.9623 7.38507 24.0653 6.92151 23.9866 6.47078C23.9079 6.02004 23.6538 5.61885 23.28 5.355ZM13.94 16.885L15.155 17.775L13.905 18.21L13.94 16.885ZM15.75 16.965L14.53 16.075L20.34 8.115L21.56 9L15.75 16.965ZM16 22.5C16 22.6326 15.9473 22.7598 15.8536 22.8536C15.7598 22.9473 15.6326 23 15.5 23H1.5C1.36739 23 1.24021 22.9473 1.14645 22.8536C1.05268 22.7598 1 22.6326 1 22.5V1.5C1 1.36739 1.05268 1.24021 1.14645 1.14645C1.24021 1.05268 1.36739 1 1.5 1H15.5C15.6326 1 15.7598 1.05268 15.8536 1.14645C15.9473 1.24021 16 1.36739 16 1.5V12.365L13.43 15.89L13.04 16.425C12.9808 16.5066 12.9477 16.6042 12.945 16.705L12.895 18.91C12.8932 18.9906 12.9109 19.0704 12.9466 19.1427C12.9823 19.2149 13.0349 19.2775 13.1 19.325C13.1858 19.3871 13.2891 19.4204 13.395 19.42C13.4513 19.4194 13.5071 19.4092 13.56 19.39L15.64 18.67C15.7357 18.6369 15.8181 18.5737 15.875 18.49L16 18.325V22.5ZM22.895 7.15L22.145 8.175L20.925 7.285L21.675 6.285C21.8014 6.14774 21.9739 6.06179 22.1596 6.0435C22.3453 6.02522 22.5312 6.07589 22.682 6.18586C22.8327 6.29583 22.9377 6.45741 22.977 6.63982C23.0163 6.82223 22.9871 7.01272 22.895 7.175V7.15Z" fill="#C01B58"/>
<path d="M2.5 3.5H14.5C14.6326 3.5 14.7598 3.44732 14.8536 3.35355C14.9473 3.25979 15 3.13261 15 3C15 2.86739 14.9473 2.74021 14.8536 2.64645C14.7598 2.55268 14.6326 2.5 14.5 2.5H2.5C2.36739 2.5 2.24021 2.55268 2.14645 2.64645C2.05268 2.74021 2 2.86739 2 3C2 3.13261 2.05268 3.25979 2.14645 3.35355C2.24021 3.44732 2.36739 3.5 2.5 3.5Z" fill="#C01B58"/>
<path d="M14.5 8.5H6.5C6.36739 8.5 6.24021 8.55268 6.14645 8.64645C6.05268 8.74021 6 8.86739 6 9C6 9.13261 6.05268 9.25979 6.14645 9.35355C6.24021 9.44732 6.36739 9.5 6.5 9.5H14.5C14.6326 9.5 14.7598 9.44732 14.8536 9.35355C14.9473 9.25979 15 9.13261 15 9C15 8.86739 14.9473 8.74021 14.8536 8.64645C14.7598 8.55268 14.6326 8.5 14.5 8.5Z" fill="#C01B58"/>
<path d="M13.835 12.5H6.5C6.36739 12.5 6.24021 12.5527 6.14645 12.6464C6.05268 12.7402 6 12.8674 6 13C6 13.1326 6.05268 13.2598 6.14645 13.3536C6.24021 13.4473 6.36739 13.5 6.5 13.5H13.835C13.9676 13.5 14.0948 13.4473 14.1886 13.3536C14.2823 13.2598 14.335 13.1326 14.335 13C14.335 12.8674 14.2823 12.7402 14.1886 12.6464C14.0948 12.5527 13.9676 12.5 13.835 12.5Z" fill="#C01B58"/>
<path d="M11.5 16.5H6.5C6.36739 16.5 6.24021 16.5527 6.14645 16.6464C6.05268 16.7402 6 16.8674 6 17C6 17.1326 6.05268 17.2598 6.14645 17.3536C6.24021 17.4473 6.36739 17.5 6.5 17.5H11.5C11.6326 17.5 11.7598 17.4473 11.8536 17.3536C11.9473 17.2598 12 17.1326 12 17C12 16.8674 11.9473 16.7402 11.8536 16.6464C11.7598 16.5527 11.6326 16.5 11.5 16.5Z" fill="#C01B58"/>
<path d="M12 5C12 4.86739 11.9473 4.74021 11.8536 4.64645C11.7598 4.55268 11.6326 4.5 11.5 4.5H5C4.86739 4.5 4.74021 4.55268 4.64645 4.64645C4.55268 4.74021 4.5 4.86739 4.5 5C4.5 5.13261 4.55268 5.25979 4.64645 5.35355C4.74021 5.44732 4.86739 5.5 5 5.5H11.5C11.6326 5.5 11.7598 5.44732 11.8536 5.35355C11.9473 5.25979 12 5.13261 12 5Z" fill="#C01B58"/>
<path d="M11.5 20.5H5C4.86739 20.5 4.74021 20.5527 4.64645 20.6464C4.55268 20.7402 4.5 20.8674 4.5 21C4.5 21.1326 4.55268 21.2598 4.64645 21.3536C4.74021 21.4473 4.86739 21.5 5 21.5H11.5C11.6326 21.5 11.7598 21.4473 11.8536 21.3536C11.9473 21.2598 12 21.1326 12 21C12 20.8674 11.9473 20.7402 11.8536 20.6464C11.7598 20.5527 11.6326 20.5 11.5 20.5Z" fill="#C01B58"/>
<path d="M2.5 10.5H4.5C4.63261 10.5 4.75979 10.4473 4.85355 10.3536C4.94732 10.2598 5 10.1326 5 10V8C5 7.86739 4.94732 7.74021 4.85355 7.64645C4.75979 7.55268 4.63261 7.5 4.5 7.5H2.5C2.36739 7.5 2.24021 7.55268 2.14645 7.64645C2.05268 7.74021 2 7.86739 2 8V10C2 10.1326 2.05268 10.2598 2.14645 10.3536C2.24021 10.4473 2.36739 10.5 2.5 10.5ZM3 8.5H4V9.5H3V8.5Z" fill="#C01B58"/>
<path d="M2.5 14.5H4.5C4.63261 14.5 4.75979 14.4473 4.85355 14.3536C4.94732 14.2598 5 14.1326 5 14V12C5 11.8674 4.94732 11.7402 4.85355 11.6464C4.75979 11.5527 4.63261 11.5 4.5 11.5H2.5C2.36739 11.5 2.24021 11.5527 2.14645 11.6464C2.05268 11.7402 2 11.8674 2 12V14C2 14.1326 2.05268 14.2598 2.14645 14.3536C2.24021 14.4473 2.36739 14.5 2.5 14.5ZM3 12.5H4V13.5H3V12.5Z" fill="#C01B58"/>
<path d="M5 18V16C5 15.8674 4.94732 15.7402 4.85355 15.6464C4.75979 15.5527 4.63261 15.5 4.5 15.5H2.5C2.36739 15.5 2.24021 15.5527 2.14645 15.6464C2.05268 15.7402 2 15.8674 2 16V18C2 18.1326 2.05268 18.2598 2.14645 18.3536C2.24021 18.4473 2.36739 18.5 2.5 18.5H4.5C4.63261 18.5 4.75979 18.4473 4.85355 18.3536C4.94732 18.2598 5 18.1326 5 18ZM4 17.5H3V16.5H4V17.5Z" fill="#C01B58"/>
</g>
<defs>
<clipPath id="clip0_124_113">
<rect width="24" height="24" fill="white"/>
</clipPath>
</defs>
</svg>
