<svg width="22" height="22" viewBox="0 0 22 22" fill="none" xmlns="http://www.w3.org/2000/svg">
<path d="M19.25 0H2.75C1.2375 0 0 1.2375 0 2.75V22H22V2.75C22 1.2375 20.7625 0 19.25 0ZM20.1667 20.1667H1.83333V2.75C1.83333 2.24583 2.24583 1.83333 2.75 1.83333H19.25C19.7542 1.83333 20.1667 2.24583 20.1667 2.75V20.1667ZM7.33333 11.9167H17.4167V13.75H7.33333V11.9167ZM10.0833 15.5833H17.4167V17.4167H10.0833V15.5833ZM4.58333 8.25H17.4167V10.0833H4.58333V8.25ZM13.75 4.58333H17.4167V6.41667H13.75V4.58333Z" fill="#959595"/>
</svg>
