<svg width="34" height="34" viewBox="0 0 34 34" fill="none" xmlns="http://www.w3.org/2000/svg">
<g clip-path="url(#clip0_98_660)">
<path d="M26.9167 5.66669H7.08333C3.17192 5.66669 0 8.83719 0 12.75V21.25C0 25.1614 3.17192 28.3334 7.08333 28.3334H26.9167C30.8224 28.3334 34 25.1558 34 21.25V12.75C34 8.84427 30.8224 5.66669 26.9167 5.66669ZM11.5033 22.6667C11.0415 22.6667 10.6406 22.3479 10.5372 21.8974L10.1617 20.2584H6.749L6.36083 21.9031C6.25458 22.3508 5.8565 22.6667 5.39608 22.6667C4.75717 22.6667 4.28542 22.0703 4.43133 21.4484L6.43308 12.9583C6.71783 11.7314 8.04383 10.9664 9.34575 11.5119C9.96767 11.7725 10.3856 12.3704 10.5386 13.0277L12.4695 21.454C12.6112 22.0745 12.1408 22.6667 11.5033 22.6667ZM31.1667 21.25C31.1667 23.5932 29.2598 25.5 26.9167 25.5H17V8.50002H26.9167C29.2598 8.50002 31.1667 10.4069 31.1667 12.75V21.25ZM29.0417 13.6227V13.6524C29.0417 14.1341 28.6507 14.5251 28.169 14.5251H27.7213C27.5499 16.3314 26.8472 18.394 25.4447 20.0019C26.2126 20.468 27.1334 20.8009 28.2554 20.9072C28.7017 20.9497 29.0417 21.3265 29.0417 21.7756V21.8054C29.0417 22.3239 28.594 22.7234 28.0783 22.6738C26.4676 22.5194 25.1614 21.981 24.1003 21.2259C23.0336 21.9881 21.7118 22.5222 20.0883 22.6738C19.5727 22.7219 19.1264 22.3224 19.1264 21.8039V21.7742C19.1264 21.3194 19.4777 20.9469 19.9311 20.9044C21.0474 20.7981 21.9682 20.4694 22.7318 20.0048C22.2629 19.4679 21.8719 18.8799 21.5518 18.2665C21.25 17.6885 21.6778 16.9972 22.3295 16.9972H22.3437C22.6638 16.9972 22.9627 17.17 23.1101 17.4534C23.3722 17.952 23.6994 18.4323 24.0918 18.8729C25.2507 17.5695 25.7805 15.8865 25.9377 14.5223H20.0005C19.5188 14.5223 19.1278 14.1313 19.1278 13.6496V13.6199C19.1278 13.1382 19.5188 12.7472 20.0005 12.7472H23.1979V12.2032C23.1979 11.7215 23.5889 11.3305 24.0706 11.3305H24.1003C24.582 11.3305 24.973 11.7215 24.973 12.2032V12.7472H28.1704C28.6521 12.7472 29.0431 13.1382 29.0431 13.6199L29.0417 13.6227ZM8.59208 13.4059L9.707 18.275H7.21792L8.36683 13.4059C8.37958 13.3535 8.42492 13.3167 8.47875 13.3167C8.53258 13.3167 8.58075 13.3535 8.59208 13.4059Z" fill="#C01B58"/>
</g>
<defs>
<clipPath id="clip0_98_660">
<rect width="34" height="34" fill="white"/>
</clipPath>
</defs>
</svg>
