<svg width="32" height="33" viewBox="0 0 32 33" fill="none" xmlns="http://www.w3.org/2000/svg">
<g clip-path="url(#clip0_95_84)">
<path d="M15.9441 33.011L15.0147 32.1894C13.7333 31.083 2.54541 21.1188 2.54541 13.8302C2.54541 6.19904 8.54422 0.0127621 15.9441 0.0127621C23.344 0.0127621 29.3428 6.19904 29.3428 13.8302C29.3428 21.1188 18.1548 31.0831 16.8788 32.1949L15.9441 33.011ZM15.9441 3.00049C10.147 3.00725 5.44922 7.85187 5.44266 13.8301C5.44266 18.409 12.3259 25.7236 15.9441 29.0715C19.5623 25.7223 26.4455 18.4034 26.4455 13.8301C26.439 7.85187 21.7412 3.00732 15.9441 3.00049Z" fill="#B71C56"/>
<path d="M15.9439 19.3073C13.0107 19.3073 10.6328 16.8551 10.6328 13.8302C10.6328 10.8052 13.0107 8.35306 15.9439 8.35306C18.8772 8.35306 21.2551 10.8052 21.2551 13.8302C21.2551 16.8551 18.8772 19.3073 15.9439 19.3073ZM15.9439 11.0915C14.4773 11.0915 13.2884 12.3176 13.2884 13.8301C13.2884 15.3426 14.4773 16.5686 15.9439 16.5686C17.4106 16.5686 18.5995 15.3426 18.5995 13.8301C18.5995 12.3176 17.4106 11.0915 15.9439 11.0915Z" fill="#B71C56"/>
</g>
<defs>
<clipPath id="clip0_95_84">
<rect width="32" height="33" fill="white"/>
</clipPath>
</defs>
</svg>
