<svg width="126" height="50" viewBox="0 0 126 50" fill="none" xmlns="http://www.w3.org/2000/svg">
<g clip-path="url(#clip0_126_465)">
<path d="M70.7773 18.5953V26.9574H67.0604V18.9765C67.0604 17.7737 67.134 15.2149 64.6489 15.2149C63.928 15.2149 63.2504 15.469 62.6162 15.9795C62.2438 16.2752 61.9559 16.6301 61.7503 17.042C61.5295 17.4845 61.4364 17.9797 61.4364 18.4748V26.9596H57.7195V23.4851C55.9595 25.5028 53.2839 27.2116 49.5886 27.2116C47.5278 27.2116 45.7289 26.7975 44.1875 25.965C42.6484 25.1369 41.4708 24.0218 40.6611 22.6241C39.8472 21.2264 39.4424 19.6972 39.4424 18.0366C39.4424 16.376 39.8494 14.849 40.6611 13.4513C41.4708 12.0536 42.6484 10.9385 44.1875 10.106C45.7289 9.27791 47.5278 8.86166 49.5886 8.86166C52.0673 8.86166 54.2169 9.60653 56.0418 11.0963L55.5396 11.8345C54.7559 11.208 53.8835 10.737 52.9289 10.4259C51.9742 10.1126 51.0607 9.95267 50.1904 9.95267C48.8028 9.95267 47.5905 10.3229 46.5623 11.059C45.534 11.7973 44.7417 12.781 44.1897 14.0078C43.6377 15.2368 43.3606 16.5798 43.3606 18.0366C43.3606 19.4935 43.6355 20.8364 44.1897 22.0654C44.7417 23.2945 45.534 24.2781 46.5623 25.0142C47.5905 25.7525 48.8007 26.1184 50.1904 26.1184C51.0607 26.1184 51.985 25.9979 52.9289 25.6496C54.6195 25.0296 56.202 23.9802 57.3536 22.5825C60.2219 19.0991 59.6396 13.9705 66.3331 13.9705C67.7228 13.9705 68.8117 14.3474 69.5975 15.1032C70.3855 15.8568 70.7795 17.0223 70.7795 18.5975L70.7773 18.5953Z" fill="#3A0A1E"/>
<path d="M57.7178 8.91204V19.8593C57.865 19.5614 58.0057 19.2547 58.1464 18.9392C58.9084 17.2764 59.7267 15.4844 61.4368 14.3123V8.90985H57.7178V8.91204Z" fill="#3A0A1E"/>
<path d="M84.2743 25.7722C83.5967 26.0176 82.8975 26.1425 82.181 26.1425C80.7241 26.1425 79.5746 25.6561 78.7282 24.6812C77.8818 23.7107 77.4423 22.4072 77.4077 20.7795H87.7076C87.7076 19.3752 87.4262 18.1637 86.8677 17.1471C86.3027 16.1306 85.519 15.3485 84.5038 14.8052C83.4928 14.2619 82.3477 13.9946 81.0791 13.9946C79.7088 13.9946 78.4489 14.24 77.3146 14.7439C76.1738 15.2456 75.2667 15.9882 74.5827 16.9828C73.9116 17.9709 73.5674 19.1824 73.5674 20.6042C73.5674 22.026 73.9008 23.163 74.561 24.162C75.2213 25.161 76.1305 25.9212 77.2864 26.436C78.4424 26.9552 79.7586 27.2137 81.2263 27.2137C82.3996 27.2137 83.456 27.0472 84.3912 26.7164C85.3285 26.3856 86.1014 25.8993 86.7053 25.2552L85.9498 24.725C85.5147 25.1829 84.9562 25.5356 84.2786 25.7766L84.2743 25.7722ZM78.6243 16.3826C79.3343 15.4515 80.3279 14.9827 81.5987 14.9827C82.3044 14.9827 82.93 15.136 83.4842 15.4405C84.0362 15.7494 84.4713 16.1482 84.7938 16.652C85.1099 17.1537 85.2679 17.6795 85.2679 18.2403C85.2679 18.7486 85.1207 19.1649 84.8285 19.4847C84.5341 19.8111 84.06 19.9711 83.4127 19.9711H77.4358C77.5137 18.5098 77.9164 17.3158 78.6264 16.3848L78.6243 16.3826Z" fill="#3A0A1E"/>
<path d="M98.7543 13.9968C97.7498 13.9968 96.7909 14.2203 95.8752 14.6716C94.9616 15.1163 94.2321 15.7692 93.6801 16.6126V14.2488H90.3896V26.9618H94.1022V17.7102C94.2213 17.2479 94.4637 16.8996 94.8296 16.6542C95.1954 16.4089 95.637 16.2884 96.1393 16.2884C96.6415 16.2884 97.2346 16.3979 97.8711 16.6258C98.5097 16.8536 99.0162 17.099 99.3994 17.3509V14.0209C99.2522 14.0034 99.0336 13.999 98.75 13.999L98.7543 13.9968Z" fill="#3A0A1E"/>
<path d="M110.031 13.9968C109.02 13.9968 108.067 14.2203 107.152 14.6716C106.238 15.1163 105.508 15.7692 104.95 16.6126V14.2488H101.666V26.9618H105.379V17.7102C105.498 17.2479 105.74 16.8996 106.112 16.6542C106.478 16.4089 106.913 16.2884 107.416 16.2884C107.918 16.2884 108.511 16.3979 109.147 16.6258C109.786 16.8536 110.293 17.099 110.676 17.3509V14.0209C110.529 14.0034 110.31 13.999 110.026 13.999L110.031 13.9968Z" fill="#3A0A1E"/>
<path d="M61.4579 41.5743V28.3026H57.6934V42.6368H69.1666V41.5743H61.4579Z" fill="#3A0A1E"/>
<path d="M80.4083 29.9303V32.3511C79.9796 31.488 79.3584 30.8264 78.5054 30.3575C77.6872 29.8953 76.6719 29.6609 75.5202 29.6609C74.1434 29.6609 72.9636 29.9632 71.9808 30.5919C70.998 31.2251 70.2772 32.0532 69.7858 33.0478C69.2944 34.0753 69.0303 35.1378 69.0303 36.2638C69.0303 37.3899 69.2965 38.4919 69.7858 39.4843C70.2772 40.4789 70.998 41.307 71.9808 41.9401C72.9636 42.5689 74.1413 42.8646 75.5202 42.8646C76.4749 42.8646 77.3603 42.6653 78.1114 42.2709C78.9016 41.8372 79.5229 41.2435 79.9796 40.4767V42.6346H83.716V29.9281H80.4083V29.9303ZM79.9796 38.6847C79.8498 39.5807 79.4882 40.2773 78.9362 40.7396C78.3431 41.2413 77.6547 41.4713 76.8992 41.4713C76.0138 41.4713 75.2973 41.2435 74.6695 40.7396C74.0482 40.2423 73.5914 39.6135 73.2927 38.8139C72.9658 38.0208 72.8359 37.1577 72.8359 36.2617C72.8359 35.3656 72.9658 34.5375 73.2927 33.7094C73.5914 32.9492 74.0482 32.281 74.6695 31.7837C75.2951 31.2864 76.0116 31.0586 76.8992 31.0586C77.6547 31.0586 78.3431 31.2864 78.9362 31.7837C79.4882 32.2525 79.8498 32.9492 79.9796 33.8387V38.6825V38.6847Z" fill="#3A0A1E"/>
<path d="M95.8779 24.5892V32.0532C95.4211 31.2886 94.7998 30.6883 94.0097 30.294C93.226 29.8602 92.3731 29.6609 91.425 29.6609C90.0417 29.6609 88.8619 29.9632 87.8812 30.592C86.8984 31.2251 86.1776 32.0532 85.6862 33.0478C85.1948 34.0753 84.9307 35.1378 84.9307 36.2639C84.9307 37.3899 85.1969 38.4919 85.6862 39.4843C86.1776 40.4789 86.8984 41.307 87.8812 41.9402C88.864 42.5689 90.0417 42.8647 91.425 42.8647C92.3731 42.8647 93.2585 42.6653 94.0097 42.271C94.7998 41.8372 95.4211 41.2435 95.8779 40.4767V42.6346H99.6186V24.5892H95.8779ZM95.8779 38.6847C95.748 39.5807 95.3865 40.2774 94.7998 40.7396C94.2413 41.2413 93.5529 41.4713 92.7974 41.4713C91.912 41.4713 91.1955 41.2435 90.5742 40.7396C89.9486 40.2774 89.4897 39.6486 89.1909 38.849C88.864 38.0559 88.7342 37.2278 88.7342 36.3296C88.7342 35.4314 88.8987 34.5353 89.1909 33.7423C89.5178 32.9492 89.9811 32.281 90.6023 31.7837C91.2236 31.2864 91.9791 31.0235 92.832 31.0235C93.5875 31.0235 94.2435 31.2864 94.802 31.7837C95.354 32.281 95.7155 32.9777 95.88 33.8387V38.6825L95.8779 38.6847Z" fill="#3A0A1E"/>
<path d="M126 14.2466V28.6619C126 29.8098 125.684 30.8154 125.052 31.672C124.426 32.522 123.613 33.1858 122.597 33.6415C121.586 34.0994 120.508 34.3272 119.37 34.3272C118.231 34.3272 117.062 34.0709 116.016 33.5495C115.542 33.3151 115.114 33.0346 114.724 32.6929V44.3259C114.724 45.4848 114.43 46.4794 113.81 47.347C113.157 48.2036 112.332 48.8323 111.349 49.3011C110.334 49.77 109.249 49.9978 108.104 49.9978C106.959 49.9978 105.814 49.7349 104.764 49.1982C103.714 48.7074 102.861 47.9407 102.235 46.9132L103.026 46.2165C103.517 47.0797 104.205 47.7698 105.024 48.2386C105.842 48.7074 106.66 48.9353 107.518 48.9353C108.241 48.9353 108.894 48.7753 109.481 48.3766C110.068 48.0108 110.496 47.439 110.756 46.7138C110.858 46.4444 110.925 46.1486 110.953 45.8178C110.988 45.487 111.02 45.0576 111.02 44.5559V40.9127C110.427 41.5743 109.671 42.0716 108.825 42.4024C107.933 42.7332 107.052 42.8997 106.139 42.8997C104.727 42.8997 103.645 42.5338 102.859 41.7693C102.069 41.0091 101.675 39.8501 101.675 38.2859V28.4121H105.383V37.8938C105.383 39.0878 105.513 39.9794 105.777 40.549C106.037 41.1076 106.561 41.4735 107.346 41.6115C107.55 41.6466 107.708 41.6751 107.81 41.6751C108.533 41.6751 109.221 41.4056 109.842 40.9149C110.464 40.3781 110.858 39.7165 111.022 38.8599V28.4143H114.737C114.787 32.5614 117.828 33.2866 118.763 33.2866C119.504 33.2866 120.164 33.0982 120.751 32.7148C121.333 32.3314 121.762 31.7837 122.026 31.052C122.134 30.7825 122.195 30.4802 122.229 30.1428C122.268 29.8164 122.286 29.4002 122.286 28.8853V25.2311C121.675 25.9103 120.943 26.4076 120.067 26.7449C119.203 27.0757 118.3 27.2357 117.38 27.2357C115.993 27.2357 114.908 26.8589 114.118 26.1052C113.328 25.356 112.934 24.1861 112.934 22.6153V14.2488H116.653V22.2319C116.653 23.4303 116.783 24.3219 117.032 24.8872C117.285 25.4524 117.811 25.8007 118.618 25.9387C118.815 25.9738 118.969 25.9957 119.064 25.9957C119.787 25.9957 120.465 25.7328 121.101 25.2311C121.74 24.7163 122.134 24.0437 122.286 23.1981V14.2488H125.998L126 14.2466Z" fill="#3A0A1E"/>
<path d="M57.7782 10.8421L57.7197 10.9276V10.7939L57.7782 10.8421Z" fill="#3A0A1E"/>
<path d="M16.8244 4.67949C12.1918 10.4631 9.8517 19.0926 9.49884 20.4728C7.64148 20.7948 5.86204 21.5682 4.37485 22.7796C-1.08035 27.1327 -1.34229 34.945 3.07166 40.1437C5.14118 42.65 8.42296 44.4486 11.6809 44.0959C5.78411 43.3882 1.53901 37.23 2.06288 31.442C2.76427 24.3614 10.4535 20.5078 16.478 23.9079C15.9585 24.5739 15.4909 25.3078 15.0948 26.1184C13.5946 29.306 13.5816 33.1858 15.3415 36.2332C13.692 29.9676 17.3786 23.0907 23.8296 22.0063C26.7239 21.5375 29.761 22.3765 31.9951 24.2803C34.4672 26.3988 35.7076 29.4834 35.6254 32.7389C35.424 38.9826 30.3109 43.5175 25.0289 45.9953C23.0654 46.9373 20.9959 47.6975 18.8809 48.4007C22.2125 48.1378 25.6003 47.3711 28.657 45.9186C34.0191 43.5394 38.537 38.1589 38.3789 31.9699L38.3746 31.8998C38.3789 30.0443 37.9893 28.1711 37.1948 26.4864C35.424 22.6482 32.1509 20.3413 28.5942 19.5921C27.7002 18.1878 23.5178 11.5059 21.2167 5.84279C24.4487 8.98216 30.4797 12.8971 38.3335 9.29106C32.6943 -0.670381 26.3862 -0.733913 22.4485 0.619984C20.2252 1.38456 18.3029 2.83486 16.8244 4.67949ZM17.9457 22.3437C16.1144 21.0095 13.9085 20.3369 11.6874 20.2997C12.3996 17.7825 14.7787 10.2353 18.8571 5.47474C20.7058 10.4916 24.2192 16.4637 25.9835 19.327C23.0914 19.3314 20.2079 20.3326 17.9479 22.3437H17.9457Z" fill="#C01A58"/>
<path d="M31.8258 27.9805C31.8323 32.5855 31.0313 36.5705 27.9941 40.1459C32.3756 38.1873 33.8477 32.1583 31.8258 27.9805Z" fill="#C01A58"/>
</g>
<defs>
<clipPath id="clip0_126_465">
<rect width="126" height="50" fill="white"/>
</clipPath>
</defs>
</svg>
