<svg width="23" height="23" viewBox="0 0 23 23" fill="none" xmlns="http://www.w3.org/2000/svg">
<g clip-path="url(#clip0_165_128)">
<path d="M17.9886 23H12.7306C10.3652 23 8.05406 22.3411 6.04464 21.0942C6.17938 21.221 2.83428 19.6558 1.75245 18.6365C1.22104 18.136 0.944015 17.4421 0.944015 16.7121C0.913429 14.9093 2.78631 13.5624 4.48507 14.1532C4.48507 14.1532 7.03924 14.8558 7.0634 14.8647C7.06816 14.8665 7.07225 14.8679 7.07567 14.869C7.56275 14.8259 7.86066 14.1805 7.86066 13.7234V5.25926C7.98979 1.86683 12.8529 1.86939 12.9808 5.25926V8.65394C13.8272 8.38334 14.8064 8.59564 15.4689 9.192C15.4974 9.21724 15.5252 9.24302 15.5524 9.26925C16.5054 8.54103 17.8933 8.62695 18.8133 9.40898C18.9457 9.51825 19.0636 9.63498 19.1658 9.75688C20.8571 8.80184 23.0665 10.059 22.9964 12.0058V14.8257C22.9522 16.0163 21.2436 16.0154 21.1999 14.8257V12.0058C21.1999 11.308 20.6166 11.2327 20.3658 11.2327C19.9951 11.2327 19.7936 11.5458 19.7407 11.6417C19.2855 12.4909 18.0984 12.4494 17.8796 11.2796C17.8524 11.1387 17.8378 11.0041 17.8363 10.9893C17.8358 10.9844 17.8353 10.9795 17.8349 10.9747C17.7645 10.8528 17.4613 10.5337 17.0678 10.5619C16.484 10.6039 16.4391 10.9183 16.393 11.2529C16.2007 12.389 14.5447 12.3048 14.4994 10.9669C14.4808 10.624 14.135 10.3344 13.7443 10.3344C13.3997 10.3344 13.0882 10.5779 13.0035 10.9135C12.997 10.9394 12.9808 11.3207 12.9808 11.3207C12.9366 12.5113 11.228 12.5104 11.1842 11.3207V5.25921C11.1458 4.24741 9.69532 4.24822 9.65719 5.25921V13.7234C9.65719 15.0919 8.68513 16.6061 7.11483 16.6661C6.90809 16.674 6.70068 16.6407 6.4816 16.5645C6.4816 16.5645 3.73933 15.8138 3.63881 15.8138C3.14351 15.8138 2.74055 16.2168 2.74055 16.7121C2.74055 16.9359 2.82152 17.1465 2.96974 17.3115L3.57503 17.7434C3.57503 17.7434 6.9517 19.5426 6.96904 19.5535C8.6991 20.6329 10.6914 21.2034 12.7306 21.2034H17.9886C19.362 21.2034 20.5817 20.3348 21.0236 19.042C21.184 18.5726 21.6947 18.3223 22.1642 18.4826C22.6336 18.6431 22.8841 19.1537 22.7236 19.6232C22.033 21.643 20.1302 23 17.9886 23ZM17.8314 10.8954V10.8962C17.8314 10.8959 17.8314 10.8957 17.8314 10.8954ZM17.7415 6.83122C17.5145 6.83122 17.2875 6.74575 17.1126 6.57423C16.7584 6.22683 16.7529 5.65813 17.1003 5.30395L18.0693 4.31608H14.7773C13.5867 4.27193 13.5876 2.5633 14.7773 2.51955H18.0693L17.1003 1.53168C16.2982 0.650843 17.5186 -0.545063 18.3829 0.273661L20.5423 2.47522C21.059 2.99612 21.059 3.83955 20.5423 4.3605L18.3829 6.56201C18.207 6.74126 17.9743 6.83122 17.7415 6.83122ZM3.18972 6.83122C2.95689 6.83122 2.72433 6.74131 2.54841 6.56197L0.388977 4.36046C-0.127706 3.83955 -0.127706 2.99612 0.388977 2.47522L2.54836 0.273661C2.89577 -0.0805248 3.46446 -0.0859144 3.81869 0.2614C4.17287 0.608804 4.17835 1.1775 3.83095 1.53168L2.86199 2.51955H6.15396C7.34452 2.5637 7.34362 4.27234 6.15396 4.31608H2.86199L3.83095 5.30395C4.38909 5.8695 3.97395 6.83612 3.18972 6.83122Z" fill="#C01B58"/>
</g>
<defs>
<clipPath id="clip0_165_128">
<rect width="23" height="23" fill="white"/>
</clipPath>
</defs>
</svg>
