<svg width="34" height="29" viewBox="0 0 34 29" fill="none" xmlns="http://www.w3.org/2000/svg">
<path d="M32.5257 0.632297C31.9948 0.14587 31.2402 -0.0162303 30.5563 0.209162L1.54029 9.77407C0.749519 10.0347 0.213269 10.7406 0.174146 11.5722C0.135087 12.404 0.602694 13.1571 1.36543 13.4909L8.54132 16.6305C8.57632 16.793 10.6363 26.3472 10.7064 26.672C10.7963 27.0891 11.008 27.4607 11.4565 27.575C11.9102 27.6906 12.2307 27.4426 12.5693 27.1892C12.7577 27.0482 17.8944 23.2018 17.8944 23.2018L24.1198 28.2961C24.4824 28.593 24.9256 28.7478 25.3775 28.7478C25.5926 28.7477 25.8099 28.7127 26.0211 28.641C26.6764 28.4188 27.1621 27.884 27.3204 27.2106L33.119 2.55713C33.2838 1.8562 33.0566 1.11872 32.5257 0.632297ZM13.0331 18.4296C13.0296 18.438 13.0261 18.4475 13.0228 18.4588L11.8224 22.6526L10.4828 16.4397L19.6943 11.3218L13.2541 18.0557C13.1526 18.1618 13.078 18.2901 13.0331 18.4296ZM13.4141 24.1353L13.9593 22.2304L14.4808 20.4084L16.3494 21.9375L13.4141 24.1353ZM31.2324 2.1133L25.4338 26.7668C25.4309 26.779 25.4271 26.7959 25.3987 26.8055C25.3706 26.815 25.3569 26.8041 25.3473 26.7961L18.5352 21.2217C18.535 21.2216 18.5348 21.2214 18.5346 21.2213L15.3784 18.6385L25.5184 8.03609C25.8496 7.68979 25.8779 7.15347 25.5851 6.77416C25.2922 6.39479 24.7661 6.28645 24.3474 6.51925L9.33293 14.8614L2.14235 11.7152C2.12044 11.7057 2.10838 11.7003 2.11012 11.6633C2.11186 11.6263 2.12437 11.6221 2.14706 11.6147L31.1631 2.04981C31.1771 2.04524 31.193 2.03995 31.2163 2.06122C31.2396 2.08262 31.2358 2.09886 31.2324 2.1133Z" fill="white"/>
</svg>
