<svg width="37" height="38" viewBox="0 0 37 38" fill="none" xmlns="http://www.w3.org/2000/svg">
<path d="M27.8106 22.9854L25.8695 21.0444C25.3399 20.5148 24.608 20.2494 23.8627 20.3164C23.1169 20.3833 22.4444 20.7746 22.0175 21.3897L21.3414 22.3641C20.4219 22.2003 18.643 21.7366 17.3996 20.4931C16.1556 19.2491 15.6921 17.4695 15.5285 16.5513L16.5031 15.8751C17.1183 15.4481 17.5096 14.7755 17.5763 14.0297C17.6432 13.2838 17.3778 12.5525 16.8484 12.0231L14.9073 10.082C14.1273 9.30209 12.9516 9.11595 11.9816 9.61856C10.2807 10.4997 9.1635 12.1515 8.8353 14.2695C8.30071 17.7203 9.89603 21.7914 12.9986 24.894C15.7045 27.5999 19.1469 29.1593 22.2721 29.1593C22.7303 29.1593 23.1819 29.1257 23.623 29.0574C25.7412 28.7293 27.3929 27.6119 28.2741 25.9112C28.7766 24.941 28.5905 23.7653 27.8106 22.9854ZM26.2991 24.8879C25.5988 26.2395 24.2722 26.7059 23.2826 26.8592C20.5617 27.2806 17.1423 25.892 14.5714 23.3212C12.0006 20.7503 10.6118 17.331 11.0333 14.61C11.1865 13.6204 11.6531 12.2939 13.0047 11.5935C13.0413 11.5746 13.0818 11.5654 13.1229 11.5654C13.1984 11.5654 13.2759 11.5965 13.3343 11.6548L15.2754 13.5959C15.3561 13.6767 15.3664 13.7684 15.3607 13.8312C15.3551 13.894 15.3287 13.9824 15.2349 14.0475L13.7017 15.1114C13.381 15.3338 13.2004 15.7083 13.2259 16.0977C13.2356 16.2448 13.4886 19.7277 15.8266 22.0658C18.1647 24.4039 21.6476 24.657 21.7947 24.6665C22.1839 24.6916 22.5586 24.5114 22.7811 24.1907L23.845 22.6575C23.91 22.5638 23.9985 22.5374 24.0612 22.5318C24.1241 22.526 24.2158 22.5364 24.2966 22.6171L26.2376 24.5581C26.3278 24.6482 26.353 24.7838 26.2991 24.8879Z" fill="white"/>
<path d="M31.5933 6.29952C28.1342 2.84041 23.5353 0.935486 18.6434 0.935486C13.7515 0.935486 9.15266 2.84041 5.69362 6.29945C2.75372 9.23935 0.887356 13.1302 0.438111 17.2554C0.0134038 21.1552 0.860959 25.1246 2.82733 28.4895L0.918903 35.6117C0.816034 35.9955 0.92577 36.405 1.20683 36.686C1.48775 36.9669 1.89744 37.0767 2.28101 36.9739L9.40325 35.0655C12.2006 36.7003 15.416 37.5618 18.6617 37.5618C19.32 37.5618 19.9797 37.5264 20.6373 37.4547C24.7625 37.0055 28.6534 35.1391 31.5933 32.1991C35.0524 28.7401 36.9573 24.1411 36.9573 19.2493C36.9573 14.3576 35.0523 9.75856 31.5933 6.29952ZM30.0204 30.6262C24.7031 35.9436 16.5359 36.8884 10.1595 32.9242C9.98147 32.8137 9.77781 32.7566 9.57215 32.7566C9.47586 32.7566 9.37914 32.7692 9.28436 32.7946L3.56601 34.3268L5.0983 28.6085C5.17785 28.3114 5.13085 27.9946 4.96854 27.7335C1.00425 21.3567 1.94923 13.1896 7.26641 7.8723C13.5398 1.59905 23.7471 1.59905 30.0204 7.8723C36.2937 14.1456 36.2937 24.353 30.0204 30.6262Z" fill="white"/>
</svg>
