<?xml version="1.0" standalone="no"?>
<!DOCTYPE svg PUBLIC "-//W3C//DTD SVG 20010904//EN"
 "http://www.w3.org/TR/2001/REC-SVG-20010904/DTD/svg10.dtd">
<svg version="1.0" xmlns="http://www.w3.org/2000/svg"
 width="250.000000pt" height="250.000000pt" viewBox="0 0 250.000000 250.000000"
 preserveAspectRatio="xMidYMid meet">
<metadata>
Created by potrace 1.14, written by Peter Selinger 2001-2017
</metadata>
<g transform="translate(0.000000,250.000000) scale(0.100000,-0.100000)"
fill="#000000" stroke="none">
<path d="M190 2478 c-71 -28 -142 -99 -169 -173 -21 -54 -21 -69 -21 -1058 l1
-1002 24 -59 c30 -73 94 -137 167 -165 52 -19 73 -20 1056 -20 964 -1 1004 0
1053 18 72 28 130 79 164 147 l30 59 0 1030 c0 988 -1 1031 -19 1065 -36 68
-86 118 -144 147 l-57 28 -1015 2 c-1009 2 -1015 2 -1070 -19z"/>
</g>
</svg>
